# xmcd CD database file
#
# Track frame offsets:
#	150
#	18052
#	43515
#	62012
#
# Disc length: 1057 seconds
#
# Revision: 1
# Processed by: cddbd v1.4PL0 Copyright (c) Steve Scherf et al.
# Submitted via: CDex 1.50beta10
#
DISCID=25041f04
DTITLE=De La Soul - Keeping The faith
DYEAR=1991
DGENRE=Rhythmic Soul
TTITLE0=Keepin' the Faith (just a touch edit)
TTITLE1=Keepin' the Faith (just a touch mix)
TTITLE2=Keepin' the Faith (instrumental)
TTITLE3=Keepin' the Faith (fly and funky mix)
EXTD=YEAR: 1991
EXTT0=
EXTT1=
EXTT2=
EXTT3=
PLAYORDER=
